<svg width="38" height="37" viewBox="0 0 38 37" fill="none" xmlns="http://www.w3.org/2000/svg">
<path d="M38 36.0673C34.8324 36.0509 31.6621 36.0346 28.4946 36.0182C28.4864 29.4405 28.4782 22.8654 28.47 16.2877C21.7996 22.8654 15.1319 29.4405 8.46141 36.0182C5.65639 36.0128 2.84864 36.0046 0.0436155 35.9991C0.0299857 34.3472 0.0163558 32.6953 0 31.0406C7.1802 23.8604 14.3577 16.6829 21.5379 9.50273C14.374 9.50273 7.20746 9.50273 0.0436155 9.50273C3.40201 6.33788 6.76313 3.16758 10.1242 0C19.4171 0 28.7072 0 38 0C38 11.997 38 24.0049 38 36.0673Z" fill="#FF003B"/>
</svg>
