<svg width="38" height="37" viewBox="0 0 38 37" fill="none" xmlns="http://www.w3.org/2000/svg">
<path d="M38 36.07C34.8324 36.0537 31.6621 36.0373 28.4946 36.0209C28.4864 29.4432 28.4782 22.8682 28.47 16.2904C21.7996 22.8682 15.1319 29.4432 8.46141 36.0209C5.65639 36.0155 2.84864 36.0073 0.0436155 36.0019C0.0299857 34.3499 0.0163558 32.698 0 31.0433C7.1802 23.8631 14.3577 16.6857 21.5379 9.50545C14.374 9.50545 7.20746 9.50545 0.0436155 9.50545C0.0436155 6.33788 0.0436155 3.16758 0.0436155 0C12.6867 0.00272597 25.3161 0.00272597 38 0.00272597C38 11.9997 38 24.0076 38 36.07Z" fill="#FF003B"/>
</svg>
